<svg width="35" height="28" viewBox="0 0 35 28" fill="none" xmlns="http://www.w3.org/2000/svg">
<g clip-path="url(#clip0_39_23)">
<path d="M6.96557 10.6051C6.94599 10.6842 6.93668 10.7751 6.93668 10.8775V16.2995C6.93668 16.79 7.16205 17.0153 7.66581 17.0153H11.9079C12.2526 17.0153 12.5045 17.0948 12.8094 17.36L18.4699 22.4638C18.5362 22.5301 18.6157 22.5699 18.682 22.5699C18.7501 22.5699 18.811 22.5271 18.8385 22.4572L20.7927 24.4079C20.5661 24.9265 20.0558 25.261 19.4245 25.261C18.7881 25.261 18.2976 24.9958 17.6613 24.4258L11.6826 19.0701C11.5898 18.9905 11.4837 18.9507 11.3644 18.9507H7.573C5.7701 18.9507 4.86865 18.0494 4.86865 16.1271V11.0499C4.86865 10.1848 5.05121 9.52378 5.41804 9.06016L6.96557 10.6051ZM20.9224 3.44051V17.2712L18.8544 15.2043V4.75291C18.8544 4.6336 18.7749 4.56732 18.682 4.56732C18.6025 4.56732 18.523 4.6071 18.4567 4.67338L13.1452 9.49855L11.7127 8.06684L17.6613 2.79094C18.3639 2.16788 18.7616 1.87622 19.3979 1.87622C20.2861 1.87622 20.9224 2.57883 20.9224 3.44051Z" fill="#767682"/>
<path d="M25.2309 26.6527C25.6287 27.0504 26.2782 27.0504 26.6759 26.6527C27.0604 26.2418 27.0736 25.6055 26.6759 25.2078L3.96726 2.51238C3.56956 2.11469 2.90673 2.11469 2.50903 2.51238C2.12459 2.89683 2.12459 3.57291 2.50903 3.95736L25.2309 26.6527Z" fill="#767682"/>
</g>
<defs>
<clipPath id="clip0_39_23">
<rect width="35" height="27.5" fill="white"/>
</clipPath>
</defs>
</svg>
