<svg width="46" height="44" viewBox="0 0 46 44" fill="none" xmlns="http://www.w3.org/2000/svg">
<path d="M3 3L43 41" stroke="#616066" stroke-width="6" stroke-linecap="round" stroke-linejoin="round"/>
<path fill-rule="evenodd" clip-rule="evenodd" d="M5.45426 12.2281C4.5424 13.4101 4 14.8917 4 16.5V26.5C4 30.366 7.13401 33.5 11 33.5H18.9182C19.1723 33.5 19.4168 33.5967 19.6022 33.7705L27.7124 41.3739C30.4087 43.9017 34.1404 43.7519 36.6777 41.8904L22.6934 28.6053C21.574 27.8884 20.2652 27.5 18.9182 27.5H11C10.4477 27.5 10 27.0523 10 26.5V16.5465L5.45426 12.2281ZM33.5 25.0784V7.02324C33.5 6.15583 32.4712 5.69978 31.8285 6.28225L23.6578 13.6869C23.2823 14.0272 22.8738 14.3232 22.4404 14.5718L17.1017 9.50003H18.9572C19.2054 9.50003 19.4447 9.40771 19.6287 9.24102L27.7994 1.83633C32.2985 -2.24102 39.5 0.951423 39.5 7.02324V30.7784L33.5 25.0784Z" fill="#616066"/>
</svg>
