<svg width="17" height="17" viewBox="0 0 17 17" fill="none" xmlns="http://www.w3.org/2000/svg">
<path d="M4.74371 16.9462C5.12167 16.9462 5.38392 16.7457 5.85444 16.3292L8.51554 13.9611H13.4675C15.7661 13.9611 17.0002 12.6884 17.0002 10.4285V4.52002C17.0002 2.26001 15.7661 0.987305 13.4675 0.987305H3.53272C1.23414 0.987305 0 2.2523 0 4.52002V10.4285C0 12.6962 1.23414 13.9611 3.53272 13.9611H3.90296V15.9666C3.90296 16.5606 4.20378 16.9462 4.74371 16.9462ZM5.05996 15.5347V13.2978C5.05996 12.8813 4.89798 12.7193 4.48146 12.7193H3.53272C1.97462 12.7193 1.24185 11.9249 1.24185 10.4207V4.52002C1.24185 3.01592 1.97462 2.22916 3.53272 2.22916H13.4675C15.0179 2.22916 15.7584 3.01592 15.7584 4.52002V10.4207C15.7584 11.9249 15.0179 12.7193 13.4675 12.7193H8.46927C8.03729 12.7193 7.82134 12.781 7.52824 13.0818L5.05996 15.5347Z" fill="#767682"/>
<path d="M3.6256 8.36882H6.80348C7.05031 8.36882 7.25086 8.16833 7.25086 7.91374C7.25086 7.67468 7.05031 7.47412 6.80348 7.47412H3.6256C3.37877 7.47412 3.17822 7.67468 3.17822 7.91374C3.17822 8.16833 3.37877 8.36882 3.6256 8.36882ZM8.40016 8.36882H13.3907C13.6376 8.36882 13.8304 8.16833 13.8304 7.91374C13.8304 7.67468 13.6376 7.47412 13.3907 7.47412H8.40016C8.15333 7.47412 7.95277 7.67468 7.95277 7.91374C7.95277 8.16833 8.15333 8.36882 8.40016 8.36882ZM3.6256 10.382H4.93687C5.1837 10.382 5.37653 10.1892 5.37653 9.9424C5.37653 9.68787 5.1837 9.48731 4.93687 9.48731H3.6256C3.37877 9.48731 3.17822 9.68787 3.17822 9.9424C3.17822 10.1892 3.37877 10.382 3.6256 10.382ZM6.52582 10.382H10.3902C10.6371 10.382 10.8376 10.1892 10.8376 9.9424C10.8376 9.68787 10.6371 9.48731 10.3902 9.48731H6.52582C6.27899 9.48731 6.08616 9.68787 6.08616 9.9424C6.08616 10.1892 6.27899 10.382 6.52582 10.382ZM11.9869 10.382H13.3907C13.6376 10.382 13.8304 10.1892 13.8304 9.9424C13.8304 9.68787 13.6376 9.48731 13.3907 9.48731H11.9869C11.74 9.48731 11.5395 9.68787 11.5395 9.9424C11.5395 10.1892 11.74 10.382 11.9869 10.382Z" fill="#767682"/>
</svg>
