<svg width="17" height="13" viewBox="0 0 17 13" fill="none" xmlns="http://www.w3.org/2000/svg">
<path fill-rule="evenodd" clip-rule="evenodd" d="M13.4673 13C15.7659 13 17 11.7247 17 9.46022V3.53984C17 1.27527 15.7659 0 13.4673 0H3.53267C1.23412 0 0 1.26754 0 3.53984V9.46022C0 11.7325 1.23412 13 3.53267 13H13.4673ZM1.24183 9.45243C1.24183 10.9596 1.97459 11.7557 3.53267 11.7557H13.4673C15.0177 11.7557 15.7582 10.9596 15.7582 9.45243V3.53984C15.7582 2.0327 15.0177 1.24436 13.4673 1.24436H3.53267C1.97459 1.24436 1.24183 2.0327 1.24183 3.53984V9.45243Z" fill="#767682"/>
<path d="M5.48756 6.48606C5.7592 6.48606 5.98209 6.2704 5.98209 5.99901V5.65806L5.91243 4.55865L7.41691 6.13817C7.61891 6.36083 7.95323 6.35388 8.15525 6.14511C8.35722 5.94334 8.35026 5.60239 8.14824 5.40755L6.58109 3.91153L7.64676 3.98111H7.98806C8.25968 3.98111 8.47561 3.76541 8.47561 3.49404C8.47561 3.22266 8.25968 3 7.98806 3H5.57114C5.20895 3 5 3.16004 5 3.57753V5.99901C5 6.2704 5.21592 6.48606 5.48756 6.48606ZM9.01197 10H11.4219C11.7841 10 12 9.83998 12 9.4225V7.00098C12 6.72962 11.7771 6.51391 11.5055 6.51391C11.2338 6.51391 11.0179 6.72962 11.0179 7.00098V7.34198L11.0875 8.44135L9.58309 6.86186C9.37411 6.63919 9.04679 6.64614 8.83782 6.85485C8.63579 7.05667 8.64281 7.39762 8.84477 7.59243L10.4189 9.0885L9.35325 9.01891H9.01197C8.74028 9.01891 8.5174 9.23463 8.5174 9.50598C8.5174 9.77734 8.74028 10 9.01197 10Z" fill="#767682"/>
</svg>
