<svg width="30" height="19" viewBox="0 0 30 19" fill="none" xmlns="http://www.w3.org/2000/svg">
<path d="M3.67969 18.5156H25.8164C28.2539 18.5156 29.4961 17.2969 29.4961 14.8828V3.62109C29.4961 1.21875 28.2539 0 25.8164 0H3.67969C1.21875 0 0 1.20703 0 3.62109V14.8828C0 17.2969 1.21875 18.5156 3.67969 18.5156ZM3.70312 16.6289C2.53125 16.6289 1.88672 15.9961 1.88672 14.7773V3.72656C1.88672 2.50781 2.53125 1.88672 3.70312 1.88672H25.7812C26.9414 1.88672 27.6094 2.50781 27.6094 3.72656V14.7773C27.6094 15.9961 26.9414 16.6289 25.7812 16.6289H3.70312Z" fill="#767682" fill-opacity="0.5"/>
<path d="M5.83594 6.52734H4.75781C4.44141 6.52734 4.24219 6.32812 4.24219 6.01172V4.93359C4.24219 4.60547 4.44141 4.40625 4.75781 4.40625H5.83594C6.16406 4.40625 6.36328 4.60547 6.36328 4.93359V6.01172C6.36328 6.32812 6.16406 6.52734 5.83594 6.52734Z" fill="#767682" fill-opacity="0.5"/>
<path d="M9.60938 6.52734H8.53125C8.20312 6.52734 8.00391 6.32812 8.00391 6.01172V4.93359C8.00391 4.60547 8.20312 4.40625 8.53125 4.40625H9.60938C9.92578 4.40625 10.125 4.60547 10.125 4.93359V6.01172C10.125 6.32812 9.92578 6.52734 9.60938 6.52734Z" fill="#767682" fill-opacity="0.5"/>
<path d="M13.3711 6.52734H12.3047C11.9766 6.52734 11.7773 6.32812 11.7773 6.01172V4.93359C11.7773 4.60547 11.9766 4.40625 12.3047 4.40625H13.3711C13.6992 4.40625 13.8984 4.60547 13.8984 4.93359V6.01172C13.8984 6.32812 13.6992 6.52734 13.3711 6.52734Z" fill="#767682" fill-opacity="0.5"/>
<path d="M17.1445 6.52734H16.0664C15.75 6.52734 15.5508 6.32812 15.5508 6.01172V4.93359C15.5508 4.60547 15.75 4.40625 16.0664 4.40625H17.1445C17.4727 4.40625 17.6719 4.60547 17.6719 4.93359V6.01172C17.6719 6.32812 17.4727 6.52734 17.1445 6.52734Z" fill="#767682" fill-opacity="0.5"/>
<path d="M20.918 6.52734H19.8398C19.5117 6.52734 19.3125 6.32812 19.3125 6.01172V4.93359C19.3125 4.60547 19.5117 4.40625 19.8398 4.40625H20.918C21.2344 4.40625 21.4336 4.60547 21.4336 4.93359V6.01172C21.4336 6.32812 21.2344 6.52734 20.918 6.52734Z" fill="#767682" fill-opacity="0.5"/>
<path d="M24.6797 6.52734H23.6133C23.2852 6.52734 23.0859 6.32812 23.0859 6.01172V4.93359C23.0859 4.60547 23.2852 4.40625 23.6133 4.40625H24.6797C25.0078 4.40625 25.207 4.60547 25.207 4.93359V6.01172C25.207 6.32812 25.0078 6.52734 24.6797 6.52734Z" fill="#767682" fill-opacity="0.5"/>
<path d="M5.83594 10.3008H4.75781C4.44141 10.3008 4.24219 10.1016 4.24219 9.77344V8.70703C4.24219 8.37891 4.44141 8.17969 4.75781 8.17969H5.83594C6.16406 8.17969 6.36328 8.37891 6.36328 8.70703V9.77344C6.36328 10.1016 6.16406 10.3008 5.83594 10.3008Z" fill="#767682" fill-opacity="0.5"/>
<path d="M9.60938 10.3008H8.53125C8.20312 10.3008 8.00391 10.1016 8.00391 9.77344V8.70703C8.00391 8.37891 8.20312 8.17969 8.53125 8.17969H9.60938C9.92578 8.17969 10.125 8.37891 10.125 8.70703V9.77344C10.125 10.1016 9.92578 10.3008 9.60938 10.3008Z" fill="#767682" fill-opacity="0.5"/>
<path d="M13.3711 10.3008H12.3047C11.9766 10.3008 11.7773 10.1016 11.7773 9.77344V8.70703C11.7773 8.37891 11.9766 8.17969 12.3047 8.17969H13.3711C13.6992 8.17969 13.8984 8.37891 13.8984 8.70703V9.77344C13.8984 10.1016 13.6992 10.3008 13.3711 10.3008Z" fill="#767682" fill-opacity="0.5"/>
<path d="M17.1445 10.3008H16.0664C15.75 10.3008 15.5508 10.1016 15.5508 9.77344V8.70703C15.5508 8.37891 15.75 8.17969 16.0664 8.17969H17.1445C17.4727 8.17969 17.6719 8.37891 17.6719 8.70703V9.77344C17.6719 10.1016 17.4727 10.3008 17.1445 10.3008Z" fill="#767682" fill-opacity="0.5"/>
<path d="M20.918 10.3008H19.8398C19.5117 10.3008 19.3125 10.1016 19.3125 9.77344V8.70703C19.3125 8.37891 19.5117 8.17969 19.8398 8.17969H20.918C21.2344 8.17969 21.4336 8.37891 21.4336 8.70703V9.77344C21.4336 10.1016 21.2344 10.3008 20.918 10.3008Z" fill="#767682" fill-opacity="0.5"/>
<path d="M24.6797 10.3008H23.6133C23.2852 10.3008 23.0859 10.1016 23.0859 9.77344V8.70703C23.0859 8.37891 23.2852 8.17969 23.6133 8.17969H24.6797C25.0078 8.17969 25.207 8.37891 25.207 8.70703V9.77344C25.207 10.1016 25.0078 10.3008 24.6797 10.3008Z" fill="#767682" fill-opacity="0.5"/>
<path d="M5.83594 14.0742H4.75781C4.44141 14.0742 4.24219 13.875 4.24219 13.5469V12.4688C4.24219 12.1523 4.44141 11.9531 4.75781 11.9531H5.83594C6.16406 11.9531 6.36328 12.1523 6.36328 12.4688V13.5469C6.36328 13.875 6.16406 14.0742 5.83594 14.0742Z" fill="#767682" fill-opacity="0.5"/>
<path d="M20.8008 14.0742H8.64844C8.23828 14.0742 8.00391 13.8398 8.00391 13.4297V12.5859C8.00391 12.1875 8.23828 11.9531 8.64844 11.9531H20.8008C21.1992 11.9531 21.4336 12.1875 21.4336 12.5859V13.4297C21.4336 13.8398 21.1992 14.0742 20.8008 14.0742Z" fill="#767682" fill-opacity="0.5"/>
<path d="M24.6797 14.0742H23.6133C23.2852 14.0742 23.0859 13.875 23.0859 13.5469V12.4688C23.0859 12.1523 23.2852 11.9531 23.6133 11.9531H24.6797C25.0078 11.9531 25.207 12.1523 25.207 12.4688V13.5469C25.207 13.875 25.0078 14.0742 24.6797 14.0742Z" fill="#767682" fill-opacity="0.5"/>
</svg>
