<svg width="22" height="22" viewBox="0 0 22 22" fill="none" xmlns="http://www.w3.org/2000/svg">
<g clip-path="url(#clip0_99_2182)">
<path d="M21.5742 3.65625V17.9648C21.5742 20.3789 20.3555 21.5977 17.8945 21.5977H3.67969C1.23047 21.5977 0 20.3906 0 17.9648V3.65625C0 1.23047 1.23047 0.0234375 3.67969 0.0234375H17.8945C20.3555 0.0234375 21.5742 1.24219 21.5742 3.65625ZM7.37109 4.32422L7.26562 13.9688C7.25391 14.4492 7.80469 14.5898 8.10938 14.2969L9.94922 12.4453L12.0117 17.543C12.1172 17.7773 12.3633 17.8828 12.5859 17.8008L13.7812 17.3203C14.0039 17.2148 14.0859 16.9688 13.9805 16.7344L11.8125 11.707L14.4141 11.6016C14.8711 11.5898 15.0938 11.1445 14.7656 10.8047L8.16797 4.00781C7.85156 3.70312 7.38281 3.87891 7.37109 4.32422Z" fill="#1C1C1E"/>
</g>
<defs>
<clipPath id="clip0_99_2182">
<rect width="21.9258" height="21.5977" fill="white"/>
</clipPath>
</defs>
</svg>
