<svg width="30" height="19" viewBox="0 0 30 19" fill="none" xmlns="http://www.w3.org/2000/svg">
<path d="M3.67969 18.5156H25.8164C28.2539 18.5156 29.4961 17.2969 29.4961 14.8828V3.62109C29.4961 1.21875 28.2539 0 25.8164 0H3.67969C1.21875 0 0 1.20703 0 3.62109V14.8828C0 17.2969 1.21875 18.5156 3.67969 18.5156ZM3.70312 16.6289C2.53125 16.6289 1.88672 15.9961 1.88672 14.7773V3.72656C1.88672 2.50781 2.53125 1.88672 3.70312 1.88672H25.7812C26.9414 1.88672 27.6094 2.50781 27.6094 3.72656V14.7773C27.6094 15.9961 26.9414 16.6289 25.7812 16.6289H3.70312Z" fill="#767682" fill-opacity="0.5"/>
<path d="M4 3H25.5C26.0523 3 26.5 3.44772 26.5 4V14.5C26.5 15.0523 26.0523 15.5 25.5 15.5H4C3.44772 15.5 3 15.0523 3 14.5V4C3 3.44772 3.44772 3 4 3Z" fill="#767682" fill-opacity="0.5"/>
</svg>
