<svg width="35" height="28" viewBox="0 0 35 28" fill="none" xmlns="http://www.w3.org/2000/svg">
<g clip-path="url(#clip0_39_28)">
<path d="M30.4523 22.8249C30.9428 23.1563 31.5526 23.037 31.9105 22.5332C33.6074 20.2001 34.6016 16.992 34.6016 13.7175C34.6016 10.4432 33.6207 7.20857 31.9105 4.90192C31.5526 4.39817 30.9428 4.27886 30.4523 4.61027C29.9618 4.94168 29.8823 5.56475 30.2667 6.10828C31.7117 8.14979 32.5468 10.8939 32.5468 13.7175C32.5468 16.5412 31.6852 19.2589 30.2667 21.3269C29.8955 21.8705 29.9618 22.4935 30.4523 22.8249Z" fill="#767682"/>
<path d="M25.5475 19.3652C25.985 19.6701 26.608 19.5773 26.9659 19.0603C27.9867 17.7214 28.5966 15.7461 28.5966 13.7178C28.5966 11.6896 27.9867 9.72761 26.9659 8.37544C26.608 7.85843 25.985 7.75238 25.5475 8.07054C25.004 8.44173 24.9245 9.10455 25.3354 9.64808C26.1043 10.7086 26.5417 12.1801 26.5417 13.7178C26.5417 15.2556 26.091 16.7139 25.3354 17.7877C24.9377 18.3445 25.004 18.9808 25.5475 19.3652Z" fill="#767682"/>
<path d="M7.70429 19.1134H11.5089C11.6283 19.1134 11.7343 19.1531 11.8271 19.2326L17.8058 24.5883C18.4422 25.1584 18.9327 25.4235 19.569 25.4235C20.4174 25.4235 21.067 24.8005 21.067 23.9388V3.6031C21.067 2.74142 20.4174 2.03882 19.5425 2.03882C18.9061 2.03882 18.4952 2.33046 17.8058 2.95353L11.8271 8.25618C11.7343 8.33572 11.6283 8.37549 11.5089 8.37549H7.70429C5.90138 8.37549 5.01318 9.29021 5.01318 11.2124V16.2897C5.01318 18.2119 5.91464 19.1134 7.70429 19.1134ZM7.79708 17.1779C7.30658 17.1779 7.08121 16.9525 7.08121 16.462V11.0401C7.08121 10.5363 7.30658 10.311 7.79708 10.311H12.0392C12.3839 10.311 12.649 10.2447 12.9539 9.96629L18.6012 4.83598C18.6675 4.76968 18.7338 4.72991 18.8266 4.72991C18.9194 4.72991 18.999 4.7962 18.999 4.91551V22.5336C18.999 22.6529 18.9194 22.7324 18.8266 22.7324C18.7603 22.7324 18.6807 22.6926 18.6012 22.6263L12.9539 17.5226C12.649 17.2574 12.3839 17.1779 12.0392 17.1779H7.79708Z" fill="#767682"/>
</g>
<defs>
<clipPath id="clip0_39_28">
<rect width="35" height="27.5" fill="white"/>
</clipPath>
</defs>
</svg>
